<svg width="58" height="22" viewBox="0 0 58 22" fill="none" xmlns="http://www.w3.org/2000/svg">
<path d="M0.57 21L8.01 -1.43051e-06H11.85L19.26 21H16.08L9.96 3.03H9.9L3.72 21H0.57ZM4.05 15.36L4.89 12.96H14.76L15.6 15.36H4.05ZM20.044 21V6.12H22.714L22.984 9.12H23.014C23.414 8.3 23.864 7.65 24.364 7.17C24.884 6.67 25.484 6.31 26.164 6.09C26.864 5.87 27.654 5.76 28.534 5.76V8.91H27.724C27.044 8.91 26.414 9 25.834 9.18C25.254 9.34 24.754 9.61 24.334 9.99C23.934 10.35 23.614 10.84 23.374 11.46C23.154 12.06 23.044 12.81 23.044 13.71V21H20.044ZM35.7572 21.36C34.3172 21.36 33.0372 21.04 31.9172 20.4C30.7972 19.74 29.9172 18.83 29.2772 17.67C28.6372 16.51 28.3172 15.15 28.3172 13.59C28.3172 12.03 28.6272 10.67 29.2472 9.51C29.8872 8.33 30.7672 7.41 31.8872 6.75C33.0072 6.09 34.3172 5.76 35.8172 5.76C37.2772 5.76 38.5372 6.09 39.5972 6.75C40.6772 7.39 41.5072 8.24 42.0872 9.3C42.6672 10.36 42.9572 11.54 42.9572 12.84C42.9572 13.04 42.9572 13.26 42.9572 13.5C42.9572 13.74 42.9472 13.99 42.9272 14.25H30.5072V12.15H39.9572C39.8972 10.91 39.4772 9.94 38.6972 9.24C37.9172 8.54 36.9472 8.19 35.7872 8.19C34.9672 8.19 34.2072 8.37 33.5072 8.73C32.8272 9.09 32.2772 9.62 31.8572 10.32C31.4572 11.02 31.2572 11.91 31.2572 12.99V13.83C31.2572 14.93 31.4572 15.86 31.8572 16.62C32.2772 17.36 32.8272 17.92 33.5072 18.3C34.2072 18.68 34.9572 18.87 35.7572 18.87C36.6972 18.87 37.4872 18.66 38.1272 18.24C38.7672 17.8 39.2372 17.21 39.5372 16.47H42.5372C42.2772 17.41 41.8372 18.25 41.2172 18.99C40.5972 19.71 39.8272 20.29 38.9072 20.73C38.0072 21.15 36.9572 21.36 35.7572 21.36ZM49.1829 21.36C47.9629 21.36 46.9429 21.16 46.1229 20.76C45.3229 20.34 44.7229 19.78 44.3229 19.08C43.9429 18.38 43.7529 17.62 43.7529 16.8C43.7529 15.82 44.0029 14.98 44.5029 14.28C45.0229 13.58 45.7629 13.04 46.7229 12.66C47.6829 12.28 48.8429 12.09 50.2029 12.09H54.1629C54.1629 11.21 54.0229 10.49 53.7429 9.93C53.4629 9.35 53.0629 8.92 52.5429 8.64C52.0429 8.34 51.4129 8.19 50.6529 8.19C49.7529 8.19 48.9629 8.42 48.2829 8.88C47.6229 9.32 47.2129 9.99 47.0529 10.89H44.0529C44.1729 9.79 44.5329 8.87 45.1329 8.13C45.7529 7.37 46.5429 6.79 47.5029 6.39C48.4829 5.97 49.5429 5.76 50.6829 5.76C52.0829 5.76 53.2629 6.01 54.2229 6.51C55.1829 7.01 55.9129 7.72 56.4129 8.64C56.9129 9.54 57.1629 10.61 57.1629 11.85V21H54.5829L54.3129 18.48H54.2829C54.0429 18.9 53.7529 19.29 53.4129 19.65C53.0929 20.01 52.7229 20.32 52.3029 20.58C51.8829 20.82 51.4129 21.01 50.8929 21.15C50.3729 21.29 49.8029 21.36 49.1829 21.36ZM49.8129 18.93C50.4929 18.93 51.0929 18.8 51.6129 18.54C52.1329 18.28 52.5729 17.93 52.9329 17.49C53.3129 17.03 53.5929 16.52 53.7729 15.96C53.9729 15.4 54.0829 14.82 54.1029 14.22H50.5029C49.6429 14.22 48.9429 14.32 48.4029 14.52C47.8629 14.72 47.4729 15 47.2329 15.36C47.0129 15.72 46.9029 16.14 46.9029 16.62C46.9029 17.08 47.0129 17.49 47.2329 17.85C47.4729 18.19 47.8029 18.46 48.2229 18.66C48.6629 18.84 49.1929 18.93 49.8129 18.93Z" fill="black"/>
</svg>
